/* XPM */
const char *fd_3inch_16_xpm[] = {
"16 16 12 1",
" 	c None",
".	c #000000",
"+	c #1B1B1B",
"@	c #CCCCCC",
"#	c #1F1B18",
"$	c #C0C0C0",
"%	c #EFEED8",
"&	c #282828",
"*	c #FF0000",
"=	c #646464",
"-	c #13100F",
";	c #1A1A1A",
"                ",
"  =++@@@@@@++=  ",
"  +.*@@@@@@*.+  ",
"  +..@@@@@@..;  ",
"  +..@@@@@@..+  ",
"  +..........+  ",
"  +....##....+  ",
"  +...#%%#...+  ",
"  +...#%%#...+  ",
"  +....##.-..+  ",
"  +....$$....+  ",
"  +....$$....+  ",
"  +....$$....+  ",
"  +..........+  ",
"  &++ ++++ ++&  ",
"                "};
