/* XPM */
const char * fd_5inch_16_2_xpm[] = {
"16 16 28 1",
" 	c None",
".	c #282828",
"+	c #1B1B1B",
"@	c #242424",
"#	c #000000",
"$	c #63737B",
"%	c #5B6A72",
"&	c #617179",
"*	c #4B595F",
"=	c #211C19",
"-	c #0C0B0A",
";	c #485257",
">	c #141210",
",	c #1F1B18",
"'	c #0D0B0A",
")	c #111111",
"!	c #1D1D1D",
"~	c #1F1C19",
"{	c #302A26",
"]	c #0C0A09",
"^	c #453D34",
"/	c #282320",
"(	c #3D3530",
"_	c #55646B",
":	c #5D6C73",
"<	c #232323",
"[	c #161616",
"}	c #191818",
"    .++++++++++@",
"    +##########+",
"  $%%%%%%%%%%&#+",
"  %**********%#+",
".++++++++++@*%#+",
"+##########+*%#+",
"+##########+*%#+",
"+##########+*%#+",
"+####==-###+*%#+",
"+###=**=###+*%#+",
"+###=;*=###+*%#+",
"+####>,#'##+*%)!",
"+####~{]^##+*%  ",
"+####/(####+_:  ",
"+####/(####+    ",
"<))))[}))))!    "};
