/* XPM */
const char * fd_5inch_16_open_xpm[] = {
"16 16 49 1",
" 	c None",
".	c #282828",
"+	c #1B1B1B",
"@	c #242424",
"#	c #000000",
"$	c #211C19",
"%	c #0C0B0A",
"&	c #9F8539",
"*	c #A2873A",
"=	c #C8A743",
"-	c #C8A643",
";	c #26201A",
">	c #050402",
",	c #040401",
"'	c #030201",
")	c #1D1D1C",
"!	c #A58A3B",
"~	c #FBDE4A",
"{	c #FCDF4A",
"]	c #C9A744",
"^	c #C8A744",
"/	c #C7A643",
"(	c #F8DA4A",
"_	c #F9DB4A",
":	c #FADC4A",
"<	c #FBDD4A",
"[	c #FDE04A",
"}	c #F3D34B",
"|	c #F4D44B",
"1	c #F4D54B",
"2	c #F5D64B",
"3	c #F6D74B",
"4	c #F7D84A",
"5	c #EDCB4B",
"6	c #EDCC4B",
"7	c #EECD4B",
"8	c #EFCE4B",
"9	c #F0CF4B",
"0	c #F1D14B",
"a	c #E6C34B",
"b	c #E7C34B",
"c	c #E7C44B",
"d	c #E8C54B",
"e	c #E9C64B",
"f	c #EAC84B",
"g	c #E1BC4C",
"h	c #E2BD4C",
"i	c #E3BE4C",
"j	c #E4C04B",
"                ",
"  .++++++++++@  ",
"  +##########+  ",
"  +##########+  ",
"  +##########+  ",
"  +####$$%###+  ",
" &+###$&&$###+& ",
" *===--  ;>,')& ",
" !=~{~{]]^^==-/=",
" &=((____::<~{[=",
" &=}|||11234(_<=",
" =5566677890}2(=",
" =abcbbbcdef59= ",
" =ghhggghhijaf= ",
" ============== ",
"                "};
