/* XPM */
const char * fd_5inch_16_new_xpm[] = {
"16 16 10 1",
" 	c None",
".	c #000000",
"+	c #FFF075",
"@	c #1B1B1B",
"#	c #282828",
"$	c #1A1A1A",
"%	c #1F1B18",
"&	c #13100F",
"*	c #2A2522",
"=	c #3D3530",
"  .+.           ",
"...+....@@@@@@# ",
"++.+.++.......@ ",
".+++++........$ ",
" @+++.........  ",
".+++++........@ ",
"++.+.++.%.....@ ",
".@.+.... %....@ ",
" @.+..%  %....@ ",
" @.....%%.&...@ ",
" @.....**.....@ ",
" @.....==.....@ ",
" @.....==.....@ ",
" @.....**.....@ ",
" #@@@@@@@@@@@@# ",
"                "};
