/* XPM */
const char * fd_5inch_16_export_xpm[] = {
"16 16 59 1",
" 	c None",
".	c #C5C6C6",
"+	c #BEC0C0",
"@	c #BEBFBF",
"#	c #C1C3C3",
"$	c #C2C5C5",
"%	c #FAFCFC",
"&	c #FBFCFC",
"*	c #FCFDFD",
"=	c #E9E9E9",
"-	c #CDCECE",
";	c #DFE4E4",
">	c #BCBEBE",
",	c #282828",
"'	c #1B1B1B",
")	c #BEC3C3",
"!	c #F5F9F9",
"~	c #F7FAFA",
"{	c #F0F0F0",
"]	c #C8CBCB",
"^	c #000000",
"/	c #B5BFBF",
"(	c #EBF5F5",
"_	c #EEF6F6",
":	c #F4F9F9",
"<	c #F6FAFA",
"[	c #EDEFEF",
"}	c #C3C6C6",
"|	c #1567E2",
"1	c #E9F3F4",
"2	c #ECF5F5",
"3	c #EFF7F7",
"4	c #F2F8F8",
"5	c #21EE5B",
"6	c #D8ECEC",
"7	c #DDEEEE",
"8	c #E1F0F0",
"9	c #E5F2F2",
"0	c #B6BFBF",
"a	c #C6E3E4",
"b	c #CBE6E6",
"c	c #D0E8E8",
"d	c #D5EAEB",
"e	c #AABABA",
"f	c #B0D9DA",
"g	c #B1D9DA",
"h	c #B3DADB",
"i	c #B5DBDC",
"j	c #B7DCDD",
"k	c #92AEAF",
"l	c #AED8D9",
"m	c #AFD8D9",
"n	c #AFD9DA",
"o	c #8CABAC",
"p	c #89AAAB",
"q	c #89A9AA",
"r	c #1F1B18",
"s	c #2A2522",
"t	c #3D3530",
"        .....+@#",
"        $%&*=-;>",
",''''''')!~%&{]+",
"'^^^^^^^/(_:<~[}",
"'^^^^^^^|||1234)",
"'^^^||||55|67890",
"'^^^|55555|abcde",
"'^^^^||55|fghijk",
"'^^^|55|5|lmnfgo",
"'^^|555|5|pqqqqp",
"'^|555|r||^^^'  ",
"'^|55|ss^^^^^'  ",
"'|555|tt^^^^^'  ",
"'|555|tt^^^^^'  ",
"'|||||ss^^^^^'  ",
",'''''''''''',  "};
