/* XPM */
const char * fd_5inch_16_delete_xpm[] = {
"16 16 13 1",
" 	c None",
".	c #282828",
"+	c #1B1B1B",
"@	c #000000",
"#	c #1A1A1A",
"$	c #1F1B18",
"%	c #373837",
"&	c #111111",
"*	c #13100F",
"=	c #6C6C6C",
"-	c #2A2522",
";	c #BCBCBC",
">	c #3D3530",
"                ",
" .++++++++++++. ",
" +@@@@@@@@@@@@+ ",
" +@@@@@@@@@@@@# ",
" +@@@@@@@@@@@@  ",
" +@@@@@@@@@@@@+ ",
" +@@@@@$$@@@@@+ ",
" +@@@@$  $@@@@+ ",
" +@@@@$  $@@@@+ ",
" +@%@@@$&@*@%@+ ",
" +@&@=@%-@@@@&+ ",
" .@@;@@>&@@=@@. ",
"   .   = .  .   ",
"     .     .  = ",
" & =   . ;  ;.  ",
"                "};
