/* XPM */
const char * fd_5inch_16_import_xpm[] = {
"16 16 58 1",
" 	c None",
".	c #C5C6C6",
"+	c #BEC0C0",
"@	c #BEBFBF",
"#	c #C1C3C3",
"$	c #C2C5C5",
"%	c #FAFCFC",
"&	c #FBFCFC",
"*	c #FCFDFD",
"=	c #E9E9E9",
"-	c #CDCECE",
";	c #DFE4E4",
">	c #BCBEBE",
",	c #282828",
"'	c #1B1B1B",
")	c #BEC3C3",
"!	c #F5F9F9",
"~	c #F7FAFA",
"{	c #F0F0F0",
"]	c #C8CBCB",
"^	c #000000",
"/	c #B5BFBF",
"(	c #EBF5F5",
"_	c #EEF6F6",
":	c #F4F9F9",
"<	c #F6FAFA",
"[	c #EDEFEF",
"}	c #C3C6C6",
"|	c #A8B8B9",
"1	c #DCEDEE",
"2	c #E0EFF0",
"3	c #E9F3F4",
"4	c #ECF5F5",
"5	c #EFF7F7",
"6	c #F2F8F8",
"7	c #9BB2B3",
"8	c #1567E2",
"9	c #DDEEEE",
"0	c #E1F0F0",
"a	c #E5F2F2",
"b	c #B6BFBF",
"c	c #21EE5B",
"d	c #CBE6E6",
"e	c #D0E8E8",
"f	c #D5EAEB",
"g	c #AABABA",
"h	c #B3DADB",
"i	c #B5DBDC",
"j	c #B7DCDD",
"k	c #92AEAF",
"l	c #AFD9DA",
"m	c #B0D9DA",
"n	c #B1D9DA",
"o	c #8CABAC",
"p	c #89A9AA",
"q	c #89AAAB",
"r	c #13100F",
"s	c #2A2522",
"        .....+@#",
"        $%&*=-;>",
",''''''')!~%&{]+",
"'^^^^^^^/(_:<~[}",
"'^^^^^^^|123456)",
"'^^^^^^^788890ab",
"'^^^^^^88cc8defg",
"'^^^^^8cccc8hijk",
"'^88^8ccccc8lmno",
"'^8c8ccc8888pppq",
"'^8c8cc8^r^^^'  ",
"'^8cc88s^^^^^'  ",
"'8ccccc8^^^^^'  ",
"'8cc8888^^^^^'  ",
"'888^^ss^^^^^'  ",
",'''''''''''',  "};
