/* XPM */
const char * fd_5inch_16_1_xpm[] = {
"16 16 9 1",
" 	c None",
".	c #282828",
"+	c #1B1B1B",
"@	c #000000",
"#	c #1A1A1A",
"$	c #1F1B18",
"%	c #13100F",
"&	c #2A2522",
"*	c #3D3530",
"                ",
" .++++++++++++. ",
" +@@@@@@@@@@@@+ ",
" +@@@@@@@@@@@@# ",
" +@@@@@@@@@@@@  ",
" +@@@@@@@@@@@@+ ",
" +@@@@@$$@@@@@+ ",
" +@@@@$  $@@@@+ ",
" +@@@@$  $@@@@+ ",
" +@@@@@$$@%@@@+ ",
" +@@@@@&&@@@@@+ ",
" +@@@@@**@@@@@+ ",
" +@@@@@**@@@@@+ ",
" +@@@@@&&@@@@@+ ",
" .++++++++++++. ",
"                "};
