/* XPM */
const char * fileicon_delete_xpm[] = {
"16 16 112 2",
"  	c None",
". 	c #B1D9DA",
"+ 	c #96A9AA",
"@ 	c #BBDEDF",
"# 	c #8DA5A6",
"$ 	c #B4DBDC",
"% 	c #AFD9DA",
"& 	c #FBFCFC",
"* 	c #DFE4E4",
"= 	c #FDFDFD",
"- 	c #82A0A1",
"; 	c #AFD8D9",
"> 	c #B0D9DA",
", 	c #B1D9DA",
"' 	c #85A1A2",
") 	c #B1DADB",
"! 	c #B2DADB",
"~ 	c #B8DDDE",
"{ 	c #B5DBDC",
"] 	c #B2DADB",
"^ 	c #B6DCDD",
"/ 	c #B4DBDC",
"( 	c #B3DADB",
"_ 	c #B6DCDD",
": 	c #8BA4A5",
"< 	c #B7DCDD",
"[ 	c #AAB2B3",
"} 	c #D5EAEB",
"| 	c #B9DDDE",
"1 	c #C2E2E2",
"2 	c #BDDFE0",
"3 	c #BFE0E1",
"4 	c #B8DDDE",
"5 	c #95A9AA",
"6 	c #C0E1E1",
"7 	c #CAE5E6",
"8 	c #C7E4E4",
"9 	c #CEE7E7",
"0 	c #D5EAEB",
"a 	c #BADEDF",
"b 	c #D1E8E9",
"c 	c #E3F1F1",
"d 	c #CFE7E8",
"e 	c #C4E2E3",
"f 	c #B2B6B7",
"g 	c #D9ECED",
"h 	c #A0AEAF",
"i 	c #D1E9E9",
"j 	c #DEEEEF",
"k 	c #CCE6E7",
"l 	c #DCEEEE",
"m 	c #E7F3F3",
"n 	c #C8E4E5",
"o 	c #D3E9EA",
"p 	c #E1F0F0",
"q 	c #D6EBEB",
"r 	c #EAF4F5",
"s 	c #DFEFEF",
"t 	c #B6B8B8",
"u 	c #EDF6F6",
"v 	c #E0F0F0",
"w 	c #DBEDED",
"x 	c #E3F1F1",
"y 	c #AAB2B3",
"z 	c #EBF5F5",
"A 	c #F6FAFA",
"B 	c #B9BABA",
"C 	c #EEF6F6",
"D 	c #F1F7F8",
"E 	c #E5F2F2",
"F 	c #B2B6B6",
"G 	c #E9F4F4",
"H 	c #EDF5F6",
"I 	c #B8BABA",
"J 	c #BCBCBC",
"K 	c #F3F9F9",
"L 	c #EEF6F6",
"M 	c #F2F8F8",
"N 	c #F0F7F7",
"O 	c #F5F9F9",
"P 	c #B7B9B9",
"Q 	c #F3F8F8",
"R 	c #DFE4E4",
"S 	c #F9FBFB",
"T 	c #BCBCBC",
"U 	c #F8FBFB",
"V 	c #B9BABA",
"W 	c #F7FAFA",
"X 	c #BABABA",
"Y 	c #F7FAFA",
"Z 	c #F6FAFA",
"` 	c #F8FBFB",
" .	c #FAFBFB",
"..	c #FBFCFC",
"+.	c #F9FBFB",
"@.	c #FAFCFC",
"#.	c #FBFCFC",
"$.	c #BBBBBB",
"%.	c #FCFDFD",
"&.	c #FCFDFD",
"*.	c #BBBBBB",
"=.	c #AFB8B8",
"-.	c #B6B8B8",
";.	c #808F90",
">.	c #9CA8A9",
",.	c #DFE4E4",
"'.	c #95A3A4",
").	c #BECECF",
"!.	c #BABBBB",
"~.	c #FCFCFC",
"{.	c #FCFDFD",
"].	c #FDFDFD",
"                                ",
"    !.*.*.*.*.*.*.*.*.*.*.*.    ",
"    V ..~.{.= = ].*.,.,.,.*.    ",
"    P U  .& & & %.&.$.* * T     ",
"    F Q -.Z ` +.@.-.#.X R J     ",
"    y G H L D -.O Y W S I B     ",
"    h l v x m r C N M K A t     ",
"            g j p E -.z u f     ",
"        >.                      ",
"              =.          '.    ",
"                  ;.    ).      ",
"    ).    =.                    ",
"    >.          =.        ;.    ",
"          =.          =.        ",
"    ;.  '.      =.        >.    ",
"                                "};
