/* XPM */
const char * fileicon_hidden_xpm[] = {
"16 16 11 1",
" 	c None",
".	c #FEFEFE",
"+	c #CFD0D0",
"@	c #D0D0D0",
"#	c #FDFEFE",
"$	c #FDFDFD",
"%	c #C7CBCB",
"&	c #CCCECE",
"*	c #FBFDFD",
"=	c #CECFCF",
"-	c #D1D1D1",
"                ",
"  +@@@@@@@@@@@  ",
"  =#.....+...@  ",
"  &.$..#..+..-  ",
"  %....$###+.+  ",
"  +........$++  ",
"  +.........*+  ",
"  +..........+  ",
"  +..........+  ",
"  +..........+  ",
"  +..........+  ",
"  +..........+  ",
"  +..........+  ",
"  +..........+  ",
"  ++++++++++++  ",
"                "};
