/* XPM */
const char * fileicon_delete_xpm[] = {
"16 16 80 1",
" 	c None",
".	c #BABBBB",
"+	c #BBBBBB",
"@	c #B9BABA",
"#	c #FBFCFC",
"$	c #FCFCFC",
"%	c #FCFDFD",
"&	c #FDFDFD",
"*	c #DFE4E4",
"=	c #B7B9B9",
"-	c #F8FBFB",
";	c #FAFBFB",
">	c #BCBCBC",
",	c #B2B6B6",
"'	c #F3F8F8",
")	c #F5F9F9",
"!	c #F6FAFA",
"~	c #F9FBFB",
"{	c #FAFCFC",
"]	c #BABABA",
"^	c #AAB2B3",
"/	c #E9F4F4",
"(	c #EDF5F6",
"_	c #EEF6F6",
":	c #F1F7F8",
"<	c #F4F9F9",
"[	c #F7FAFA",
"}	c #B8BABA",
"|	c #A0AEAF",
"1	c #DCEEEE",
"2	c #E0F0F0",
"3	c #E3F1F1",
"4	c #E7F3F3",
"5	c #EAF4F5",
"6	c #F0F7F7",
"7	c #F2F8F8",
"8	c #F3F9F9",
"9	c #B6B8B8",
"0	c #95A9AA",
"a	c #CEE7E7",
"b	c #D1E9E9",
"c	c #D5EAEB",
"d	c #D9ECED",
"e	c #DEEEEF",
"f	c #E1F0F0",
"g	c #E5F2F2",
"h	c #E8F3F4",
"i	c #EBF5F5",
"j	c #EDF6F6",
"k	c #B2B6B7",
"l	c #8BA4A5",
"m	c #C0E1E1",
"n	c #9CA8A9",
"o	c #C7E4E4",
"p	c #CAE5E6",
"q	c #CFE7E8",
"r	c #D3E9EA",
"s	c #D6EBEB",
"t	c #DBEDED",
"u	c #DFEFEF",
"v	c #85A1A2",
"w	c #B6DCDD",
"x	c #B8DDDE",
"y	c #BADEDF",
"z	c #BDDFE0",
"A	c #C1E1E1",
"B	c #C4E2E3",
"C	c #C8E4E5",
"D	c #CCE6E7",
"E	c #D1E8E9",
"F	c #95A3A4",
"G	c #B5DBDC",
"H	c #B7DCDD",
"I	c #B9DDDE",
"J	c #808F90",
"K	c #BFE0E1",
"L	c #C2E2E2",
"M	c #BECECF",
"N	c #96A9AA",
"O	c #AFB8B8",
"                ",
"  .+++++++++++  ",
"  @#$%&&&+***+  ",
"  =-;###%%+**>  ",
"  ,')!-~{##]*>  ",
"  ^/(_:<)[[~}@  ",
"  |12345_678!9  ",
"  0abcdefghijk  ",
"  lmnopqrstu3^  ",
"  vwxyzABCDEcF  ",
"      GHIJKLMN  ",
"  M  O          ",
"  n     O  n J  ",
"    MO J  n     ",
"  J F   O  J n  ",
"                "};
