/* XPM */
const char *fileicon_normal_xpm[] = {
"16 16 97 2",
"   c #BABBBB",
"!  c #BBBBBB",
"#  c #B9BABA",
"$  c #FBFCFC",
"%  c #FCFCFC",
"&  c #FCFDFD",
"'  c #FDFDFD",
"(  c #DFE4E4",
")  c #B7B9B9",
"*  c #F8FBFB",
"+  c #FAFBFB",
",  c #BCBCBC",
"-  c #B2B6B6",
".  c #F3F8F8",
"/  c #F5F9F9",
"0  c #F6FAFA",
"1  c #F9FBFB",
"2  c #FAFCFC",
"3  c #BABABA",
"4  c #AAB2B3",
"5  c #E9F4F4",
"6  c #EDF5F6",
"7  c #EEF6F6",
"8  c #F1F7F8",
"9  c #F4F9F9",
":  c #F7FAFA",
";  c #B8BABA",
"<  c #A0AEAF",
"=  c #DCEEEE",
">  c #E0F0F0",
"aa c #E3F1F1",
"@  c #E7F3F3",
"A  c #EAF4F5",
"B  c #F0F7F7",
"C  c #F2F8F8",
"D  c #F3F9F9",
"E  c #B6B8B8",
"F  c #95A9AA",
"G  c #CEE7E7",
"H  c #D1E9E9",
"I  c #D5EAEB",
"J  c #D9ECED",
"K  c #DEEEEF",
"L  c #E1F0F0",
"M  c #E5F2F2",
"N  c #E8F3F4",
"O  c #EBF5F5",
"P  c #EDF6F6",
"Q  c #B2B6B7",
"R  c #8BA4A5",
"S  c #C0E1E1",
"T  c #C3E2E3",
"U  c #C7E4E4",
"V  c #CAE5E6",
"W  c #CFE7E8",
"X  c #D3E9EA",
"Y  c #D6EBEB",
"Z  c #DBEDED",
"[  c #DFEFEF",
"]  c #85A1A2",
"^  c #B6DCDD",
"_  c #B8DDDE",
"`  c #BADEDF",
"a  c #BDDFE0",
"b  c #C1E1E1",
"c  c #C4E2E3",
"d  c #C8E4E5",
"e  c #CCE6E7",
"f  c #D1E8E9",
"g  c #A1AEAF",
"h  c #82A0A1",
"i  c #B1D9DA",
"j  c #B2DADB",
"k  c #B3DADB",
"l  c #B5DBDC",
"m  c #B7DCDD",
"n  c #B9DDDE",
"o  c #BCDEDF",
"p  c #BFE0E1",
"q  c #C2E2E2",
"r  c #C6E3E4",
"s  c #96A9AA",
"t  c #819FA0",
"u  c #AFD9DA",
"v  c #AFD8D9",
"w  c #B0D9DA",
"x  c #B1DADB",
"y  c #B4DBDC",
"z  c #BBDEDF",
"{  c #8DA5A6",
"|  c #AED8D9",
"}  c #86A2A3",
"~  c #84A1A1",
" ! c #83A1A1",
"!! c #809FA0",
"#! c #81A0A1",
"$! c None",
"$!$!$!$!$!$!$!$!$!$!$!$!$!$!$!$!",
"$!$!  ! ! ! ! ! ! ! ! ! ! ! $!$!",
"$!$!# $ % & ' ' ' ! ( ( ( ! $!$!",
"$!$!) * + $ $ $ & & ! ( ( , $!$!",
"$!$!- . / 0 * 1 2 $ $ 3 ( , $!$!",
"$!$!4 5 6 7 8 9 / : : 1 ; # $!$!",
"$!$!< = > aa@ A 7 B C D 0 E $!$!",
"$!$!F G H I J K L M N O P Q $!$!",
"$!$!R S T U V W X Y Z [ aa4 $!$!",
"$!$!] ^ _ ` a b c d e f I g $!$!",
"$!$!h i j k l m n o p q r s $!$!",
"$!$!t u v w w x j y ^ _ z { $!$!",
"$!$!t v | | u u v w i j y } $!$!",
"$!$!h w v v v v | v v v w h $!$!",
"$!$!~  !h h h t t t !!!!t #!$!$!",
"$!$!$!$!$!$!$!$!$!$!$!$!$!$!$!$!"
};
