/* XPM */
const char * foldericon_open_xpm[] = {
"16 16 43 1",
"  c #9F8539",
"! c #A2873A",
"# c #C8A743",
"$ c #C8A643",
"% c #746027",
"& c #736027",
"' c #735F27",
"( c #725F27",
") c #715E26",
"* c #A58A3B",
"+ c #FBDE4A",
", c #FCDF4A",
"- c #C9A744",
". c #C8A744",
"/ c #C7A643",
"0 c #F8DA4A",
"1 c #F9DB4A",
"2 c #FADC4A",
"3 c #FBDD4A",
"4 c #FDE04A",
"5 c #F3D34B",
"6 c #F4D44B",
"7 c #F4D54B",
"8 c #F5D64B",
"9 c #F6D74B",
": c #F7D84A",
"; c #EDCB4B",
"< c #EDCC4B",
"= c #EECD4B",
"> c #EFCE4B",
"a c #F0CF4B",
"@ c #F1D14B",
"A c #E6C34B",
"B c #E7C34B",
"C c #E7C44B",
"D c #E8C54B",
"E c #E9C64B",
"F c #EAC84B",
"G c #E1BC4C",
"H c #E2BD4C",
"I c #E3BE4C",
"J c #E4C04B",
"K c None",
"KKKKKKKKKKKKKKKK",
"KKKKKKKKKKKKKKKK",
"KKKKKKKKKKKKKKKK",
"KKKKKKKKKKKKKKKK",
"KKKKKKKKKKKKKKKK",
"KKKKKKKKKKKKKKKK",
"K              K",
"K!###$$%&''()) K",
"K*#+,+,--..##$/#",
"K #001111223+,4#",
"K #56667789:013#",
"K#;;<<<==>a@580#",
"K#ABCBBBCDEF;a#K",
"K#GHHGGGHHIJAF#K",
"K##############K",
"KKKKKKKKKKKKKKKK"
};
