/* XPM */
const char * foldericon_close_xpm[] = {
"16 16 42 1",
"  c #C7A643",
"! c #FFE34A",
"# c #C8A743",
"$ c #FDE14A",
"% c #FEE14A",
"& c #FEE24A",
"' c #FFE24A",
"( c #C9A744",
") c #FBDE4A",
"* c #FCDF4A",
"+ c #FCE04A",
", c #FDE04A",
"- c #F8DA4A",
". c #F9DB4A",
"/ c #FADC4A",
"0 c #FBDD4A",
"1 c #C8A744",
"2 c #F3D34B",
"3 c #F4D44B",
"4 c #F4D54B",
"5 c #F5D64B",
"6 c #F6D74B",
"7 c #F7D84A",
"8 c #C9A844",
"9 c #EDCB4B",
": c #EDCC4B",
"; c #EECD4B",
"< c #EFCE4B",
"= c #F0CF4B",
"> c #F1D14B",
"a c #CBA945",
"@ c #E6C34B",
"A c #E7C34B",
"B c #E7C44B",
"C c #E8C54B",
"D c #E9C64B",
"E c #EAC84B",
"F c #E1BC4C",
"G c #E2BD4C",
"H c #E3BE4C",
"I c #E4C04B",
"J c None",
"JJJJJJJJJJJJJJJJ",
"JJJJJJJJJJJJJJJJ",
"JJJJJJJJJJJJJJJJ",
"JJJJJJJJJJJJJJJJ",
"JJ    JJJJJJJJJJ",
"J !!!! JJJJJJJJJ",
"J !!!!         J",
"J#!$%%&%&&&&'' J",
"J())*)***+,,$% J",
"J ---....//0)*1J",
"J 2233344567-.8J",
"J#99:::;;<=>25aJ",
"J#@ABAAABCDE9=#J",
"J#FGGFFFGGHI@E#J",
"J##############J",
"JJJJJJJJJJJJJJJJ"
};
