/* XPM */
const char * l3diskex_xpm[] = {
"48 48 114 2",
"  	c None",
". 	c #9C9595",
"+ 	c #4B4F4D",
"@ 	c #FFFFFF",
"# 	c #101210",
"$ 	c #AFAFAF",
"% 	c #2F3331",
"& 	c #000000",
"* 	c #1E2220",
"= 	c #945600",
"- 	c #A66409",
"; 	c #F18F07",
"> 	c #0F120F",
", 	c #F19009",
"' 	c #F28F07",
") 	c #09090A",
"! 	c #F29007",
"~ 	c #070B0B",
"{ 	c #F48B00",
"] 	c #F38C00",
"^ 	c #0A0C0C",
"/ 	c #0C0F0E",
"( 	c #DBBE95",
"_ 	c #090F0C",
": 	c #0A0B0A",
"< 	c #E4E2DD",
"[ 	c #CBCBBD",
"} 	c #FDFDFA",
"| 	c #EBEBE4",
"1 	c #090E0B",
"2 	c #FEFEFF",
"3 	c #FDFEFD",
"4 	c #FEFEFE",
"5 	c #111512",
"6 	c #FEFFFD",
"7 	c #7B8373",
"8 	c #D5D6C6",
"9 	c #0F1311",
"0 	c #8D917B",
"a 	c #DADACA",
"b 	c #0F100F",
"c 	c #101411",
"d 	c #FFFFFE",
"e 	c #FEFFFE",
"f 	c #111712",
"g 	c #0F1411",
"h 	c #0B0F0C",
"i 	c #0D100E",
"j 	c #0E1010",
"k 	c #0C110F",
"l 	c #0A0B09",
"m 	c #CD1440",
"n 	c #101111",
"o 	c #0D0F0E",
"p 	c #0E0F0C",
"q 	c #101112",
"r 	c #FBFAF1",
"s 	c #EBEAE8",
"t 	c #D2D3CD",
"u 	c #E5E6DE",
"v 	c #D4D7CE",
"w 	c #FFFFF6",
"x 	c #060605",
"y 	c #0F1111",
"z 	c #ECECDC",
"A 	c #DBD9CC",
"B 	c #E5E4DC",
"C 	c #FFFFFC",
"D 	c #F2F3EC",
"E 	c #040305",
"F 	c #C8C8C4",
"G 	c #CFCFC4",
"H 	c #FEFEFD",
"I 	c #FBFBFE",
"J 	c #ECECEE",
"K 	c #A7A7A7",
"L 	c #070706",
"M 	c #101010",
"N 	c #989688",
"O 	c #47443C",
"P 	c #5D6057",
"Q 	c #4A4A3D",
"R 	c #57574B",
"S 	c #060706",
"T 	c #E1E0D4",
"U 	c #B5B2A5",
"V 	c #B8BBB0",
"W 	c #AEADA0",
"X 	c #B4B3A6",
"Y 	c #C6CABF",
"Z 	c #070707",
"` 	c #050505",
" .	c #E4E4E3",
"..	c #F3F2F2",
"+.	c #E0DED4",
"@.	c #A6A59C",
"#.	c #D8D9D2",
"$.	c #BCBEB8",
"%.	c #CECDC5",
"&.	c #CED1C5",
"*.	c #0B0D0C",
"=.	c #101313",
"-.	c #0E0F0F",
";.	c #101312",
">.	c #111615",
",.	c #121613",
"'.	c #101211",
").	c #0F1010",
"!.	c #0E100E",
"~.	c #121614",
"{.	c #171814",
"].	c #121510",
"^.	c #101511",
"/.	c #010101",
"            . + + + + + + + + + + + + + + + + + + + + + + + + + + + @ @ @ @ @ @ @ @             ",
"            + . + + + + + + + + + + + + + + + + + + + + + + + + + # @ @ @ @ @ @ @ $             ",
"            + + % % % % % % % % % % % # + % % % % % % % % % % % # # @ @ @ @ @ @ @ $             ",
"            + + % % % % & & & % % % % # + % % % % & & & % % % % # # @ @ @ @ @ @ @ $             ",
"            + + % % % % & & * % % % % # + % % % % & & * % % % % # # @ = = = = = = =             ",
"            + + % % % % & & + % % % % # + % % % % & & + % % % % # # @ - ; ; ; ; ; =             ",
"            + + % % % % & & + % % % % # + % % % % & & + % % % % # # @ - ; ; ; ; ; =             ",
"            + + % % % % & & + % % % % > + % % % % & & + % % % % # # @ - ; ; , ; ; =             ",
"            + + % % % % & & + % % % % # + % % % % & & + % % % % # # @ - ; ' , ; ; =             ",
"            + + % % % % & & + % % % % # + % % % % & & + % % % % # # @ - ; ; , ; ; =             ",
"            + + % % % % & & + % % % % # + % % % % & & + % % % % # # @ - ; ; , ; ; =             ",
"            + + % % % % & & + % % % % # + % % % % & & + % % % % ) # @ - ; ! , ; ; =             ",
"            + + % % % % & & + % % % % # + % % % % & & + % % % % ~ # @ - ; { ] ; ; =             ",
"            + + % % % % & & + % % % % # + % % % % & & + % % % % ^ # @ - ; ; ; ; ; =             ",
"            + + % % % % & & + % % % % # + % % % % & & + % % % % / # @ - ( ( ( ( ( (             ",
"            + + % % % % & & + % % % % # + % % % % & & + % % % % _ # @ @ @ @ @ @ @ $             ",
"            + + % % % % & & + % % % % # + % % % % & & + % % % % : # @ @ < [ } | @ $             ",
"            + + % % % % & & & & & * * # + % % % % & & & & & * * 1 # @ @ @ @ 2 3 @ $             ",
"            + + % % % % & & & * * * * # + % % % % & & & * * * * # # @ @ @ @ 4 @ @ $             ",
"            + + % % % % & & * * * * * 5 + % % % % & & * * * * * # # @ 6 7 8 @ @ @ $             ",
"            + + % % % % & & * * * * * 9 + % % % % & & * * * * * # # @ @ 0 a @ @ @ $             ",
"            + + % % % % & & * * * * * b + % % % % & & * * * * * # # @ @ @ @ @ @ @ $             ",
"            + + % % % % & & * * * * * c + % % % % & & * * * * * # # @ @ d e d @ @ $             ",
"            + + % % % % & & * * * * * f + % % % % & & * * * * * / # @ @ @ 4 d @ @ $             ",
"            + + % % % % & & * * * * * g + % % % % & & * * * * * h # @ @ @ @ @ @ @ $             ",
"            + + % % % % & & * * * * * # + % % % % & & * * * * * i # @ @ @ @ @ @ @ $             ",
"            + + % % % % & & * * * * * # + % % % % & & * * * * * j # @ @ @ @ @ @ @ $             ",
"            + + % % % % & & * % % % % # + % % % % & & * % % % % k # @ @ @ @ @ @ @ $             ",
"            + + % % % % & & * % % % % # + % % % % & & * % % % % # # @ @ @ @ @ @ @ $             ",
"            + + % % % % & & * % % % % # + % % % % l & * % % % % # # @ @ @ @ @ @ @ $             ",
"            + + % % m % & & * % % % % # + % % m % & & * % % % % # # @ @ @ @ @ @ @ $             ",
"            + + % % m % & & * % % % % # + % % m % & & * % % % % # # @ @ @ d 4 @ @ $             ",
"            + + % % % % & & * % % % % # + % % % % & & * % % % % # # @ @ @ 4 @ @ @ $             ",
"            + + % % @ % & & * % % % % n + % % @ % & & * % % % % # # @ @ @ @ @ @ @ $             ",
"            + + % % @ & & & * % % % % b + % % @ & & & * % % % % o # @ @ @ @ @ @ @ $             ",
"            + + % % @ & & & * % % % % p + % % @ & & & * % % % % q # @ r @ s t u v $             ",
"            + + % % w & & & * % % % % x + % % @ & & & * % % % % y # @ z A @ B C D $             ",
"            + + % % @ & & & * % % % % E + % % @ & & & * % % % % / # @ d F G H I J $             ",
"            + + % % K & & & * % % % % L + % % K & & & * % % % % M # @ N O P @ Q R $             ",
"            + + % % & & & & * % % % % S + % % & & & & * % % % % # # @ T U V W X Y $             ",
"            + + % % % & & & * % % % % Z + % % % & & & * % % % % # # @ @ @ @ @ @ @ $             ",
"            + + % % % % & & * % % % % ` + % % % % & & * % % % % # # @ @ @ @ @ @ @ $             ",
"            + + % % % % & & * % % % % # + % % % % & & * % % % % # # @ @ @ @ @ @ @ $             ",
"            + + % % % % & & * % % % % # + % % % % & & * % % % % # # @ @  .@ @ ..@ $             ",
"            + + % % % % & * * % % % % # + % % % % & * * % % % % # # @ +.@.#.$.%.&.$             ",
"            + + % % % % % % % % % % % # + % % % % % % % % % % % # # @ @ d @ d d @ $             ",
"            + + *.=.-.i ;.>.,.'.M ).!.# + # # # # ~.{.].^.# # ;.# # @ @ @ @ @ @ @ $             ",
"            + /.# # # # # # # # # # # # # # # # # # # # # # # # # # $ $ $ $ $ $ $ $             "};
