/* XPM */
const char *labelicon_normal_xpm[] = {
"16 16 39 1",
"  c #A8AFA7",
"! c #9FA79E",
"# c #86BDAA",
"$ c #969F96",
"% c #7BB8A3",
"& c #8E978D",
"' c #70B19B",
"( c #71B29C",
") c #8D978D",
"* c #869085",
"+ c #66AC94",
", c #65AC94",
"- c #7D887D",
". c #5BA68C",
"/ c #5CA78D",
"0 c #758174",
"1 c #51A186",
"2 c #6E7A6D",
"3 c #489C7F",
"4 c #479B7E",
"5 c #6D796C",
"6 c #667365",
"7 c #3E9778",
"8 c #3D9678",
"9 c #5F6D5F",
": c #359272",
"; c #369272",
"< c #5F6C5E",
"= c #586657",
"> c #2D8D6D",
"a c #2C8D6C",
"@ c #596658",
"A c #526051",
"B c #258967",
"C c #268967",
"D c #4C5B4B",
"E c #4D5B4C",
"F c #475746",
"G c None",
"GGGGGGGGGGGGGGGG",
"GGGGGGGGG GGGGGG",
"GGGGGGGG!#!GGGGG",
"GGGGGGG$%%%$GGGG",
"GGGGGG&''((()GGG",
"GGGGG*++,,+,+*GG",
"GGGG-.///.////-G",
"GGG01111111110GG",
"GG23334333445GGG",
"GG6777777786GGGG",
"GG9:;:;:::<GGGGG",
"GG=>aa>aa@GGGGGG",
"GGABBCCBAGGGGGGG",
"GGDEEEEDGGGGGGGG",
"GFGGGGGGGGGGGGGG",
"GGGGGGGGGGGGGGGG"
};
