/* XPM */
const char * triangle_up_xpm[] = {
"8 8 2 1",
" 	c None",
".	c #000000",
"   .    ",
"  . .   ",
"  . .   ",
" .   .  ",
" .   .  ",
".     . ",
".     . ",
"        "};
